<svg xmlns="http://www.w3.org/2000/svg" width="640" height="360" viewBox="0 0 640 360" role="img" aria-labelledby="title desc">
  <title id="title">Summit Team logo</title>
  <desc id="desc">Minimal ESIIL-style Summit team mark with mountain, sun, and subtle texture.</desc>
  <defs>
    <linearGradient id="sky" x1="110" y1="40" x2="420" y2="270" gradientUnits="userSpaceOnUse">
      <stop offset="0" stop-color="#42BCDC"/>
      <stop offset="0.68" stop-color="#42BCDC"/>
      <stop offset="1" stop-color="#4CC17A"/>
    </linearGradient>
    <linearGradient id="green" x1="90" y1="178" x2="520" y2="286" gradientUnits="userSpaceOnUse">
      <stop offset="0" stop-color="#007135"/>
      <stop offset="1" stop-color="#009B52"/>
    </linearGradient>
    <radialGradient id="fade" cx="50%" cy="46%" r="58%">
      <stop offset="0" stop-color="#FFFFFF" stop-opacity="0.24"/>
      <stop offset="1" stop-color="#FFFFFF" stop-opacity="0"/>
    </radialGradient>
    <pattern id="grain" width="24" height="24" patternUnits="userSpaceOnUse">
      <path d="M2 8h2M10 3h1M17 13h2M7 19h1M21 22h1" stroke="#FFFFFF" stroke-opacity="0.18" stroke-width="1.5" stroke-linecap="round"/>
    </pattern>
  </defs>
  <rect width="640" height="360" rx="54" fill="#FFFFFF"/>
  <circle cx="276" cy="132" r="92" fill="url(#sky)"/>
  <path d="M92 236 L166 178 L214 218 L304 126 L384 198 L466 146 L548 226 L548 276 L92 276 Z" fill="url(#green)"/>
  <path d="M78 233 H142 L210 181 L264 226 L336 148 L402 207 L461 158 L562 249" fill="none" stroke="#FFFFFF" stroke-width="20" stroke-linecap="round" stroke-linejoin="round"/>
  <path d="M92 236 L166 178 L214 218 L304 126 L384 198 L466 146 L548 226 L548 276 L92 276 Z" fill="url(#fade)"/>
  <rect x="52" y="42" width="536" height="256" rx="38" fill="url(#grain)" opacity="0.55"/>
  <text x="320" y="330" text-anchor="middle" font-family="Aptos, Segoe UI, Helvetica, Arial, sans-serif" font-size="42" font-weight="800" letter-spacing="3" fill="#234A65">PROJECT GROUP</text>
</svg>
